# xmcd
#
# Track frame offsets: 
#        150
#        22606
#        49273
#        68663
#        94225
#        114087
#        145531
#        163769
#
# Disc length: 2485 seconds
#
# Revision: 1
# Processed by: cddbd v1.5.2PL0 Copyright (c) Steve Scherf et al.
# Submitted via: ExactAudioCopy v0.99pb5
#
DISCID=5909b308
DTITLE=Various Artist - Sweet Home Alabama - A Country Music Tribute to Lynyr
DTITLE=d Skynyrd
DYEAR=2010
DGENRE=Country
TTITLE0=Eric Church - The Ballad of Curtis Loew
TTITLE1=Randy Houser - Simple Man
TTITLE2=Uncle Kracker - All I Can Do Is Write About It
TTITLE3=Shooter Jennings - Call Me The Breeze
TTITLE4=Jamey Johnson - Four Walls Of Raiford
TTITLE5=Randy Montana - Tuesday's Gone
TTITLE6=Eli Young Band - Gimme Three Steps
TTITLE7=Ashley Ray - Sweet Home Alabama
EXTD=
EXTT0=
EXTT1=
EXTT2=
EXTT3=
EXTT4=
EXTT5=
EXTT6=
EXTT7=
PLAYORDER=
